<svg width="10" height="10" viewBox="0 0 10 10" fill="none" xmlns="http://www.w3.org/2000/svg">
<path d="M4.9999 0C2.24311 0 0 2.242 0 4.9995C0 7.75591 2.24311 9.99902 4.9999 9.99902C7.75702 9.99902 10 7.75591 10 4.9995C10 2.242 7.75702 0 4.9999 0ZM4.9999 8.88515C2.85705 8.88515 1.1139 7.14208 1.1139 4.99952C1.1139 2.85604 2.85705 1.113 4.9999 1.113C7.14301 1.113 8.88616 2.85607 8.88616 4.99952C8.88613 7.14208 7.14298 8.88515 4.9999 8.88515Z" fill="#EFEFEF"/>
<path d="M6.64103 5.90525C6.32163 6.45336 5.72769 6.79336 5.09107 6.79336C4.10243 6.79336 3.29714 5.98825 3.29714 4.99959C3.29714 4.01012 4.10243 3.20474 5.09107 3.20474C5.72772 3.20474 6.32163 3.54599 6.64103 4.09301L6.68231 4.1645H7.88732L7.81498 3.97049C7.60531 3.41499 7.23738 2.94267 6.75034 2.60556C6.26208 2.26757 5.68856 2.08826 5.09107 2.08826C3.486 2.08826 2.18071 3.39466 2.18071 4.99959C2.18071 6.60463 3.486 7.90981 5.09107 7.90981C5.68856 7.90981 6.26206 7.7311 6.75034 7.3926C7.23738 7.0554 7.60531 6.58325 7.81498 6.02774L7.88732 5.83363H6.68231L6.64103 5.90525Z" fill="#EFEFEF"/>
</svg>
