<svg width="90" height="90" viewBox="0 0 90 90" fill="none" xmlns="http://www.w3.org/2000/svg">
<g clip-path="url(#clip0_29_225)">
<path d="M74.25 0H15.75C7.0515 0 0 7.0515 0 15.75V74.25C0 82.9485 7.0515 90 15.75 90H74.25C82.9485 90 90 82.9485 90 74.25V15.75C90 7.0515 82.9485 0 74.25 0Z" fill="#000058"/>
<path d="M36.9357 53.1108H24.4902L21.2766 63.4311C21.2377 63.7439 21.0429 63.9 20.6923 63.9H14.8494C14.4598 63.9 14.3235 63.7047 14.4404 63.3137L25.7172 28.7768C25.9899 28.0341 26.1457 26.9591 26.1847 25.5518C26.1847 25.3173 26.3015 25.2 26.5352 25.2H34.7154C34.9491 25.2 35.0854 25.2978 35.1244 25.4932L47.7453 63.3722C47.8619 63.7241 47.7647 63.9 47.4529 63.9H40.9089C40.6362 63.9 40.4414 63.7826 40.3246 63.5481L36.9357 53.1108ZM25.8925 47.5403H35.5918C35.3581 46.7195 34.8712 45.117 34.1311 42.7323C33.391 40.3477 32.7093 38.1196 32.086 36.0478C31.4628 33.9759 30.9954 32.3341 30.6837 31.1223H30.6253C30.1968 33.155 28.6192 38.6277 25.8925 47.5403Z" fill="#9999F9"/>
<path d="M51.1939 63.4311V42.0286C51.1939 39.5268 51.1161 37.455 50.9604 35.8131C50.8825 35.5004 50.9991 35.3441 51.3109 35.3441H56.6281C56.9787 35.3441 57.2122 35.4809 57.3292 35.7545C57.4071 35.95 57.5628 36.6927 57.7968 37.9827C60.1336 35.8718 62.8215 34.8163 65.8599 34.8163C66.9894 34.8163 68.0608 34.9922 69.0733 35.3441C70.0863 35.6959 71.0601 36.2627 71.9947 37.0445C72.969 37.8263 73.7281 38.999 74.2735 40.5627C74.8581 42.0873 75.1501 43.9245 75.1501 46.0746V63.4311C75.1501 63.7438 74.9944 63.9 74.6826 63.9H68.4892C68.1774 63.9 68.0217 63.7438 68.0217 63.4311V45.8986C68.0217 44.1786 67.6324 42.83 66.853 41.8527C66.1132 40.8754 64.9833 40.3868 63.4641 40.3868C61.4386 40.3868 59.7246 41.2077 58.3224 42.8495V63.4311C58.3224 63.7438 58.1667 63.9 57.8548 63.9H51.6615C51.3501 63.9 51.1939 63.7438 51.1939 63.4311Z" fill="#9999F9"/>
</g>
<defs>
<clipPath id="clip0_29_225">
<rect width="90" height="90" fill="white"/>
</clipPath>
</defs>
</svg>
