<svg width="70" height="70" viewBox="0 0 70 70" fill="none" xmlns="http://www.w3.org/2000/svg">
<path d="M8.19489 15.1552C8.06528 11.4282 10.9686 7.99164 14.8936 7.99164H55.1108C59.0357 7.99164 61.9391 11.4282 61.8095 15.1552C61.6848 18.735 61.8467 23.3725 63.0137 27.1536C64.1846 30.9467 66.1588 33.3437 69.3924 33.6521V37.145C66.1588 37.4534 64.1846 39.8504 63.0137 43.6435C61.8467 47.4246 61.6848 52.0621 61.8095 55.6418C61.9391 59.3687 59.0357 62.8048 55.1108 62.8048H14.8936C10.9686 62.8048 8.06528 59.3682 8.19489 55.6418C8.31958 52.0621 8.1577 47.4246 6.99012 43.6435C5.81981 39.8509 3.84012 37.4534 0.606445 37.145V33.6521C3.84012 33.3442 5.81981 30.9467 6.99012 27.1536C8.1577 23.3725 8.31903 18.735 8.19489 15.1552Z" fill="url(#paint0_linear_29_313)"/>
<g filter="url(#filter0_d_29_313)">
<path d="M36.7007 50.1681C43.0548 50.1681 46.8838 47.0569 46.8838 41.9253C46.8838 38.0464 44.1517 35.2382 40.095 34.7936V34.632C43.0755 34.1471 45.4143 31.3793 45.4143 28.2884C45.4143 23.8841 41.9372 21.0151 36.6386 21.0151H24.7168V50.1681H36.7007ZM29.353 24.7123H35.521C38.874 24.7123 40.778 26.2073 40.778 28.9145C40.778 31.8036 38.5635 33.4198 34.5482 33.4198H29.353V24.7123ZM29.353 46.4709V36.8745H35.4795C39.8673 36.8745 42.1441 38.4906 42.1441 41.6424C42.1441 44.794 39.9295 46.4709 35.7486 46.4709H29.353Z" fill="url(#paint1_linear_29_313)"/>
<path d="M36.7007 50.1681C43.0548 50.1681 46.8838 47.0569 46.8838 41.9253C46.8838 38.0464 44.1517 35.2382 40.095 34.7936V34.632C43.0755 34.1471 45.4143 31.3793 45.4143 28.2884C45.4143 23.8841 41.9372 21.0151 36.6386 21.0151H24.7168V50.1681H36.7007ZM29.353 24.7123H35.521C38.874 24.7123 40.778 26.2073 40.778 28.9145C40.778 31.8036 38.5635 33.4198 34.5482 33.4198H29.353V24.7123ZM29.353 46.4709V36.8745H35.4795C39.8673 36.8745 42.1441 38.4906 42.1441 41.6424C42.1441 44.794 39.9295 46.4709 35.7486 46.4709H29.353Z" stroke="white" stroke-width="0.24566"/>
</g>
<defs>
<filter id="filter0_d_29_313" x="20.6632" y="17.9444" width="30.2742" height="37.2598" filterUnits="userSpaceOnUse" color-interpolation-filters="sRGB">
<feFlood flood-opacity="0" result="BackgroundImageFix"/>
<feColorMatrix in="SourceAlpha" type="matrix" values="0 0 0 0 0 0 0 0 0 0 0 0 0 0 0 0 0 0 127 0" result="hardAlpha"/>
<feOffset dy="0.98264"/>
<feGaussianBlur stdDeviation="1.96528"/>
<feColorMatrix type="matrix" values="0 0 0 0 0 0 0 0 0 0 0 0 0 0 0 0 0 0 0.15 0"/>
<feBlend mode="normal" in2="BackgroundImageFix" result="effect1_dropShadow_29_313"/>
<feBlend mode="normal" in="SourceGraphic" in2="effect1_dropShadow_29_313" result="shape"/>
</filter>
<linearGradient id="paint0_linear_29_313" x1="10.8279" y1="9.44228" x2="70.9341" y2="57.1555" gradientUnits="userSpaceOnUse">
<stop stop-color="#9013FE"/>
<stop offset="1" stop-color="#6610F2"/>
</linearGradient>
<linearGradient id="paint1_linear_29_313" x1="26.8142" y1="22.9336" x2="40.2487" y2="45.6554" gradientUnits="userSpaceOnUse">
<stop stop-color="white"/>
<stop offset="1" stop-color="#F1E5FC"/>
</linearGradient>
</defs>
</svg>
