<svg width="90" height="90" viewBox="0 0 90 90" fill="none" xmlns="http://www.w3.org/2000/svg">
<path d="M77.8913 64.6875C78.4209 63.7363 78.75 62.6646 78.75 61.7023V28.2975C78.75 27.3352 78.4213 26.2639 77.8914 25.3127L45 45L77.8913 64.6875Z" fill="#00599C"/>
<path d="M47.9229 83.6531L75.8274 66.9508C76.6312 66.4697 77.3617 65.6387 77.8914 64.6873L45.0001 45L12.1089 64.6877C12.6385 65.6387 13.3693 66.4699 14.1729 66.9508L42.0774 83.6531C43.6848 84.6154 46.3154 84.6154 47.9229 83.6531Z" fill="#004482"/>
<path d="M77.8914 25.3123C77.3616 24.3609 76.6309 23.5301 75.8273 23.049L47.9228 6.34674C46.3153 5.38442 43.6847 5.38442 42.0773 6.34674L14.1728 23.049C12.5651 24.0111 11.25 26.373 11.25 28.2975V61.7023C11.25 62.6646 11.5789 63.7363 12.1088 64.6873L45 45L77.8914 25.3123Z" fill="#659AD2"/>
<path d="M45.1084 67.5C32.6421 67.5 22.5 57.4065 22.5 45C22.5 32.5935 32.6421 22.5 45.1084 22.5C53.0038 22.5 60.3773 26.6503 64.4599 33.3613L54.7777 39.1682C52.7321 35.82 49.0496 33.75 45.1084 33.75C38.8751 33.75 33.8042 38.7966 33.8042 45C33.8042 51.2032 38.8751 56.25 45.1084 56.25C49.0391 56.25 52.7121 54.1916 54.7612 50.859L64.464 56.6321C60.3819 63.3471 53.0064 67.5 45.1084 67.5Z" fill="white"/>
<path d="M64.6875 43.5789H61.8748V40.7812H59.0627V43.5789H56.25V46.3768H59.0627V49.1749H61.8748V46.3768H64.6875V43.5789Z" fill="white"/>
<path d="M75.9375 43.5938H73.1248V40.7812H70.3127V43.5938H67.5V46.4061H70.3127V49.2188H73.1248V46.4061H75.9375V43.5938Z" fill="white"/>
</svg>
