<svg width="80" height="80" viewBox="0 0 80 80" fill="none" xmlns="http://www.w3.org/2000/svg">
<path d="M11.7589 71.3269L5.4751 0.844727H74.5252L68.2352 71.3163L39.9582 79.1556L11.7589 71.3269Z" fill="#1572B6"/>
<path d="M40.0005 73.1637L62.8499 66.8287L68.2255 6.60767H40.0005V73.1637Z" fill="#33A9DC"/>
<path d="M40.0005 32.1429H51.4392L52.2292 23.291H40.0005V14.6466H61.6767L61.4692 16.966L59.3442 40.7872H40.0005V32.1429Z" fill="white"/>
<path d="M40.0521 54.593L40.014 54.6042L30.3871 52.0048L29.7715 45.1105H21.0952L22.3058 58.6836L40.0127 63.5981L40.0521 63.5868V54.593Z" fill="#EBEBEB"/>
<path d="M50.7045 40.4218L49.6632 51.998L40.022 54.6005V63.5944L57.7432 58.683L57.8732 57.2224L59.377 40.4218H50.7045Z" fill="white"/>
<path d="M40.0297 14.6466V23.291H19.1497L18.9766 21.3485L18.5829 16.966L18.376 14.6466H40.0297ZM40.0004 32.1441V40.7885H30.4947L30.3216 38.846L29.9272 34.4635L29.721 32.1441H40.0004Z" fill="#EBEBEB"/>
</svg>
