<svg width="30" height="30" viewBox="0 0 30 30" fill="none" xmlns="http://www.w3.org/2000/svg">
<rect width="30" height="30" rx="5" fill="#EFEFEF"/>
<mask id="mask0_24_708" style="mask-type:luminance" maskUnits="userSpaceOnUse" x="7" y="7" width="17" height="17">
<path d="M23.0035 7H7V23.0035H23.0035V7Z" fill="white"/>
</mask>
<g mask="url(#mask0_24_708)">
<path d="M21.5034 9.07867C21.4995 8.66743 21.3336 8.27432 21.0417 7.98458C20.7499 7.69483 20.3556 7.5318 19.9443 7.53083L10.0522 7.49957C9.64137 7.49965 9.24733 7.66264 8.95648 7.95279C8.66562 8.24294 8.50169 8.63658 8.50061 9.04741V19.2522C8.50061 20.1055 9.19702 20.7525 10.0522 20.7525H18.5028L18.0964 19.3772L21.5034 22.5029V9.07867ZM17.1478 17.3083C17.1478 17.3083 16.8752 16.9835 16.6477 16.7044C17.6398 16.425 18.0183 15.8139 18.0183 15.8139C17.7458 15.9946 17.4538 16.144 17.1478 16.2593C16.7945 16.406 16.4266 16.5149 16.0504 16.5841C15.4021 16.7031 14.7373 16.7006 14.09 16.5766C13.7092 16.5058 13.3365 16.3969 12.9775 16.2515C12.7876 16.1788 12.603 16.093 12.4249 15.9949C12.4021 15.9799 12.3796 15.9723 12.3568 15.957C12.3415 15.9495 12.334 15.942 12.3255 15.942C12.1892 15.8664 12.1136 15.8136 12.1136 15.8136C12.1136 15.8136 12.4768 16.4103 13.4383 16.6969C13.211 16.9838 12.931 17.3161 12.931 17.3161C11.2584 17.2633 10.6226 16.1762 10.6226 16.1762C10.6226 13.7675 11.7126 11.8121 11.7126 11.8121C12.8025 11.0041 13.8318 11.0269 13.8318 11.0269L13.9074 11.1175C12.5449 11.5026 11.9245 12.099 11.9245 12.099C11.9245 12.099 12.0908 12.0084 12.3708 11.8874C13.1807 11.5326 13.8243 11.442 14.09 11.412C14.1324 11.4032 14.1754 11.398 14.2187 11.3967C14.7259 11.3309 15.2391 11.3258 15.7475 11.3817C16.5457 11.4734 17.319 11.7168 18.0258 12.099C18.0258 12.099 17.4278 11.5317 16.141 11.1472L16.247 11.0266C16.247 11.0266 17.2837 11.0038 18.3665 11.813C18.3665 11.813 19.4564 13.7684 19.4564 16.1771C19.4564 16.1683 18.8203 17.2555 17.1478 17.3083Z" fill="#1E1E1E"/>
<path d="M13.6301 13.8141C13.1975 13.8141 12.8558 14.1853 12.8558 14.647C12.8558 15.1087 13.205 15.4799 13.6301 15.4799C14.0627 15.4799 14.4043 15.109 14.4043 14.647C14.4122 14.1843 14.0627 13.8141 13.6301 13.8141Z" fill="#1E1E1E"/>
<path d="M16.3927 13.8141C15.9601 13.8141 15.6184 14.1853 15.6184 14.647C15.6184 15.1087 15.9676 15.4799 16.3927 15.4799C16.8255 15.4799 17.1669 15.109 17.1669 14.647C17.1669 14.1849 16.818 13.8141 16.3927 13.8141Z" fill="#1E1E1E"/>
</g>
</svg>
