<svg width="19" height="19" viewBox="0 0 19 19" fill="none" xmlns="http://www.w3.org/2000/svg">
<mask id="mask0_11_110" style="mask-type:luminance" maskUnits="userSpaceOnUse" x="0" y="0" width="19" height="19">
<path d="M18.8276 0H0V18.8276H18.8276V0Z" fill="white"/>
</mask>
<g mask="url(#mask0_11_110)">
<path d="M9.4122 13.5343C9.30979 13.5343 9.20914 13.5076 9.12022 13.4567L3.96985 10.513C3.92509 10.4872 3.87432 10.4736 3.82265 10.4736C3.77096 10.4736 3.72021 10.4873 3.67547 10.5131C3.63074 10.539 3.59361 10.5762 3.56782 10.621C3.54204 10.6658 3.52849 10.7166 3.52856 10.7682V13.5343C3.52848 13.6393 3.55651 13.7424 3.60972 13.833C3.66294 13.9234 3.73941 13.9981 3.83121 14.0491L9.12648 16.991C9.21388 17.0394 9.31222 17.065 9.4122 17.065C9.51219 17.065 9.61053 17.0394 9.69793 16.991L14.9932 14.0491C15.085 13.9981 15.1615 13.9234 15.2147 13.833C15.2679 13.7424 15.2959 13.6393 15.2959 13.5343V10.7682C15.2959 10.7166 15.2823 10.6658 15.2566 10.621C15.2308 10.5762 15.1936 10.539 15.1489 10.5131C15.1042 10.4873 15.0534 10.4736 15.0018 10.4736C14.9501 10.4736 14.8993 10.4872 14.8546 10.513L9.70418 13.4567C9.61527 13.5076 9.51462 13.5343 9.4122 13.5343Z" fill="#EFEFEF"/>
<path d="M18.2352 7.00664V7.00259C18.2256 6.90934 18.194 6.8197 18.1428 6.74115C18.0916 6.66261 18.0224 6.59742 17.941 6.55103L9.70389 1.84412C9.61498 1.7933 9.51433 1.76657 9.41192 1.76657C9.30949 1.76657 9.20886 1.7933 9.11994 1.84412L0.882847 6.55103C0.792823 6.6025 0.718 6.67685 0.665964 6.76655C0.613929 6.85624 0.586517 6.9581 0.586517 7.06181C0.586517 7.1655 0.613929 7.26736 0.665964 7.35705C0.718 7.44676 0.792823 7.52111 0.882847 7.57258L9.11994 12.2794C9.20886 12.3303 9.30949 12.3571 9.41192 12.3571C9.51433 12.3571 9.61498 12.3303 9.70389 12.2794L16.951 8.13851C16.9622 8.13204 16.9749 8.12864 16.9879 8.12865C17.0008 8.12867 17.0135 8.13209 17.0247 8.13858C17.036 8.14508 17.0452 8.15439 17.0516 8.16562C17.0581 8.17684 17.0614 8.18956 17.0614 8.20249V13.5173C17.0614 13.8339 17.3048 14.1057 17.6214 14.1214C17.701 14.1253 17.7804 14.113 17.8552 14.0851C17.9297 14.0573 17.998 14.0146 18.0556 13.9597C18.1133 13.9047 18.1592 13.8387 18.1906 13.7654C18.222 13.6923 18.2381 13.6134 18.2381 13.5338V7.06181C18.2381 7.04338 18.237 7.02497 18.2352 7.00664Z" fill="#EFEFEF"/>
</g>
</svg>
