<svg width="30" height="30" viewBox="0 0 30 30" fill="none" xmlns="http://www.w3.org/2000/svg">
<rect width="30" height="30" rx="5" fill="#EFEFEF"/>
<path d="M21.125 10H9.875C9.37788 10.0005 8.90127 10.185 8.54976 10.5131C8.19825 10.8412 8.00052 11.286 8 11.75V19.25C8.00052 19.714 8.19825 20.1588 8.54976 20.4869C8.90127 20.8149 9.37788 20.9995 9.875 21H21.125C21.6221 20.9995 22.0987 20.8149 22.4503 20.4869C22.8017 20.1588 22.9995 19.714 23 19.25V11.75C22.9995 11.286 22.8017 10.8412 22.4503 10.5131C22.0987 10.185 21.6221 10.0005 21.125 10ZM20.6502 12.8947L15.8288 16.3947C15.7348 16.4629 15.6191 16.4999 15.5 16.4999C15.3809 16.4999 15.2652 16.4629 15.1712 16.3947L10.3498 12.8947C10.2931 12.8548 10.2455 12.8047 10.2098 12.7475C10.174 12.6902 10.1508 12.6269 10.1415 12.5613C10.1322 12.4956 10.137 12.4288 10.1556 12.3649C10.1741 12.3009 10.2061 12.2411 10.2497 12.1888C10.2933 12.1365 10.3475 12.0928 10.4094 12.0602C10.4712 12.0277 10.5393 12.0069 10.6098 11.9991C10.6803 11.9914 10.7518 11.9967 10.82 12.015C10.8883 12.0332 10.9519 12.0639 11.0074 12.1053L15.5 15.3665L19.9926 12.1053C20.105 12.0261 20.2462 11.9914 20.3857 12.0086C20.5253 12.0259 20.6519 12.0937 20.7384 12.1974C20.8248 12.3011 20.8639 12.4324 20.8474 12.5629C20.8309 12.6934 20.7601 12.8126 20.6502 12.8947Z" fill="#1E1E1E"/>
</svg>
