<svg width="60" height="60" viewBox="0 0 60 60" fill="none" xmlns="http://www.w3.org/2000/svg">
<g clip-path="url(#clip0_4502_2517)">
<rect width="60" height="60" fill="white"/>
<rect width="60" height="60" fill="url(#paint0_linear_4502_2517)"/>
<path fill-rule="evenodd" clip-rule="evenodd" d="M25.0504 33.6597L22.3752 30.9845L10.1215 43.2382C10.1813 43.274 10.2424 43.3079 10.3048 43.3397C10.9465 43.6667 11.7866 43.6667 13.4668 43.6667H46.5334C48.2136 43.6667 49.0536 43.6667 49.6954 43.3397C49.7578 43.3079 49.819 43.274 49.8788 43.2381L37.6252 30.9845L34.95 33.6597C34.1055 34.5042 33.099 35.0877 32.0305 35.4105C31.3696 35.6101 30.6849 35.71 30.0002 35.71C28.2087 35.71 26.4173 35.0266 25.0504 33.6597ZM50.9049 42.2118C50.9408 42.1521 50.9747 42.0911 51.0064 42.0287C51.3334 41.3869 51.3334 40.5469 51.3334 38.8667V21.1334C51.3334 19.4532 51.3334 18.6131 51.0064 17.9714C50.9654 17.8909 50.9209 17.8125 50.8731 17.7365L38.6514 29.9583L50.9049 42.2118ZM49.9303 16.7937C49.8543 16.7459 49.7759 16.7014 49.6954 16.6604C49.0536 16.3334 48.2136 16.3334 46.5334 16.3334H13.4667C11.7866 16.3334 10.9465 16.3334 10.3048 16.6604C10.2243 16.7014 10.146 16.7458 10.07 16.7936L25.9933 32.7169C26.8087 33.5324 27.8109 34.0473 28.8621 34.2618C29.5939 34.4111 30.3495 34.4148 31.0825 34.2729C32.154 34.0654 33.1772 33.5468 34.0071 32.7169L49.9303 16.7937ZM9.12711 17.7364L21.349 29.9583L9.09535 42.212C9.05944 42.1522 9.02554 42.0911 8.99373 42.0287C8.66675 41.3869 8.66675 40.5469 8.66675 38.8667V21.1334C8.66675 19.4532 8.66675 18.6131 8.99373 17.9714C9.03477 17.8909 9.07929 17.8125 9.12711 17.7364Z" fill="url(#paint1_linear_4502_2517)"/>
</g>
<defs>
<linearGradient id="paint0_linear_4502_2517" x1="30" y1="0" x2="30" y2="60" gradientUnits="userSpaceOnUse">
<stop stop-color="#1A6AE7"/>
<stop offset="1" stop-color="#20C2F4"/>
</linearGradient>
<linearGradient id="paint1_linear_4502_2517" x1="30.0001" y1="16.3334" x2="30.0001" y2="43.6667" gradientUnits="userSpaceOnUse">
<stop stop-color="#F7F7F7"/>
<stop offset="1" stop-color="#F9F9F9"/>
</linearGradient>
<clipPath id="clip0_4502_2517">
<rect width="60" height="60" rx="13.28" fill="white"/>
</clipPath>
</defs>
</svg>
