<svg width="30" height="30" viewBox="0 0 30 30" fill="none" xmlns="http://www.w3.org/2000/svg">
<rect width="30" height="30" rx="5" fill="#EFEFEF"/>
<path d="M15.0015 8C11.135 8 8 11.2163 8 15.1797C8 18.3523 10.0067 21.0403 12.7885 21.9905C12.8276 21.999 12.8674 22.0032 12.9073 22.0031C13.1668 22.0031 13.2668 21.8124 13.2668 21.6467C13.2668 21.4748 13.2605 21.0247 13.2574 20.4246C13.0258 20.4789 12.7889 20.5072 12.551 20.509C11.2038 20.509 10.8975 19.4619 10.8975 19.4619C10.5787 18.6336 10.1192 18.4116 10.1192 18.4116C9.5097 17.9834 10.1161 17.9709 10.163 17.9709H10.1661C10.8694 18.0334 11.2382 18.7148 11.2382 18.7148C11.5883 19.3275 12.0571 19.4994 12.476 19.4994C12.7529 19.4938 13.0256 19.4299 13.2762 19.3118C13.3387 18.8492 13.52 18.5335 13.72 18.3523C12.1665 18.171 10.5318 17.5552 10.5318 14.8046C10.5318 14.0201 10.8037 13.3793 11.2507 12.8792C11.1788 12.6979 10.9381 11.9665 11.3195 10.9788C11.3706 10.9665 11.4232 10.9613 11.4757 10.9632C11.7289 10.9632 12.3009 11.0601 13.2449 11.7164C14.3919 11.3955 15.6049 11.3955 16.7519 11.7164C17.6958 11.0601 18.2678 10.9632 18.521 10.9632C18.5735 10.9613 18.6262 10.9665 18.6774 10.9788C19.0587 11.9665 18.8179 12.6979 18.746 12.8792C19.193 13.3824 19.4649 14.0232 19.4649 14.8046C19.4649 17.5615 17.8271 18.1678 16.2674 18.346C16.5175 18.5679 16.7425 19.0055 16.7425 19.6744C16.7425 20.634 16.7331 21.4092 16.7331 21.6436C16.7331 21.8124 16.83 22.0031 17.0894 22.0031C17.1314 22.0032 17.1734 21.999 17.2146 21.9905C19.9994 21.0403 22.003 18.3491 22.003 15.1797C22.003 11.2163 18.8679 8 15.0015 8Z" fill="#1E1E1E"/>
</svg>
