<svg width="70" height="70" viewBox="0 0 70 70" fill="none" xmlns="http://www.w3.org/2000/svg">
<path fill-rule="evenodd" clip-rule="evenodd" d="M34.9998 2.79071C16.7631 2.79071 1.9751 17.5755 1.9751 35.8154C1.9751 50.4071 11.4377 62.7856 24.5594 67.153C26.2093 67.4592 26.8152 66.4366 26.8152 65.5643C26.8152 64.7768 26.7846 62.1753 26.7704 59.4158C17.5829 61.4135 15.6442 55.5193 15.6442 55.5193C14.142 51.7021 11.9774 50.6871 11.9774 50.6871C8.98056 48.6374 12.2033 48.6801 12.2033 48.6801C15.519 48.9125 17.2657 52.0833 17.2657 52.0833C20.2112 57.1309 24.9914 55.6719 26.8759 54.8286C27.1724 52.6941 28.0282 51.2367 28.9727 50.412C21.6374 49.578 13.9259 46.7458 13.9259 34.0916C13.9259 30.4861 15.2166 27.5401 17.3292 25.2268C16.9857 24.3955 15.8553 21.0366 17.6485 16.4877C17.6485 16.4877 20.4212 15.6001 26.7321 19.8729C29.367 19.1406 32.1927 18.7726 34.9998 18.76C37.8052 18.7726 40.6326 19.1395 43.2724 19.8718C49.5756 15.5991 52.345 16.4866 52.345 16.4866C54.1426 21.035 53.0122 24.3944 52.6693 25.2257C54.7869 27.539 56.0683 30.485 56.0683 34.0905C56.0683 46.7748 48.3424 49.5671 40.9886 50.3852C42.1737 51.4101 43.2292 53.4204 43.2292 56.5009C43.2292 60.9197 43.1909 64.476 43.1909 65.5637C43.1909 66.4426 43.7859 67.4723 45.4593 67.148C58.5735 62.7763 68.0251 50.4016 68.0251 35.8154C68.0246 17.5766 53.2381 2.79071 34.9998 2.79071Z" fill="#181616"/>
<path d="M14.4832 50.2064C14.4104 50.3704 14.1523 50.4197 13.9172 50.3075C13.6765 50.2004 13.5426 49.9767 13.6202 49.8121C13.6913 49.6425 13.95 49.5961 14.189 49.7093C14.4296 49.817 14.5663 50.0429 14.4826 50.2069L14.4832 50.2064ZM15.8208 51.6988C15.6639 51.8448 15.356 51.777 15.1471 51.5457C14.9305 51.316 14.8901 51.0081 15.0503 50.8599C15.2133 50.7144 15.5119 50.7833 15.7284 51.013C15.9439 51.246 15.9865 51.5511 15.8214 51.6993L15.8208 51.6988ZM17.1235 53.6003C16.9211 53.7414 16.5897 53.6096 16.3852 53.3159C16.1829 53.0217 16.1829 52.669 16.3907 52.5284C16.5947 52.3873 16.9211 52.5147 17.129 52.8057C17.3302 53.1037 17.3302 53.457 17.1235 53.6003ZM18.9069 55.4384C18.7264 55.638 18.3403 55.5844 18.0581 55.3126C17.7699 55.0463 17.6895 54.6672 17.8705 54.4682C18.0543 54.268 18.442 54.3238 18.7258 54.594C19.014 54.8598 19.101 55.2393 18.9079 55.4378L18.9069 55.4384ZM21.3678 56.5053C21.2874 56.764 20.9166 56.8816 20.542 56.7711C20.1685 56.6579 19.924 56.3555 20.0006 56.0941C20.0772 55.8332 20.4507 55.7113 20.8275 55.8289C21.201 55.9415 21.4454 56.2423 21.3678 56.5053ZM24.071 56.7028C24.0803 56.9751 23.7631 57.2004 23.371 57.2059C22.9756 57.2152 22.6557 56.9942 22.6519 56.7263C22.6519 56.4512 22.9625 56.2286 23.3573 56.221C23.7494 56.2139 24.0715 56.4326 24.0715 56.7022L24.071 56.7028ZM26.5855 56.2751C26.6326 56.5403 26.3597 56.8132 25.9697 56.886C25.5869 56.9571 25.2315 56.7919 25.1822 56.5289C25.1352 56.2565 25.413 55.9836 25.7958 55.9131C26.1863 55.8458 26.5363 56.0055 26.5855 56.2751Z" fill="#181616"/>
</svg>
