<svg width="80" height="80" viewBox="0 0 80 80" fill="none" xmlns="http://www.w3.org/2000/svg">
<path d="M11.8981 71.1725L5.64502 1.03821H74.3549L68.0949 71.1619L39.9581 78.9619L11.8981 71.1725Z" fill="#E44D26"/>
<path d="M40 73L62.7362 66.6963L68.0856 6.77246H40V73Z" fill="#F16529"/>
<path d="M40 32.7845H28.6175L27.8313 23.9757H40V15.3745H18.4307L18.6369 17.682L20.7507 41.3863H40V32.7845ZM40 55.1238L39.9619 55.1344L30.3825 52.547L29.7707 45.6876H21.135L22.34 59.1932L39.9607 64.0844L40 64.0738V55.1238Z" fill="#EBEBEB"/>
<path d="M39.9702 32.7845V41.3863H50.5622L49.564 52.542L39.9702 55.1313V64.0806L57.6046 59.1932L57.734 57.7401L59.7553 35.0944L59.9646 32.7845H57.6471H39.9702ZM39.9702 15.3745V23.9757H60.7477L60.9202 22.0432L61.3127 17.682L61.5183 15.3745H39.9702Z" fill="white"/>
</svg>
