<svg width="30" height="30" viewBox="0 0 30 30" fill="none" xmlns="http://www.w3.org/2000/svg">
<rect width="30" height="30" rx="5" fill="#EFEFEF"/>
<path d="M17.9166 9.16657C18.6895 9.16888 19.4301 9.47694 19.9766 10.0235C20.5231 10.57 20.8312 11.3106 20.8334 12.0835V17.9167C20.8312 18.6895 20.5231 19.4301 19.9766 19.9766C19.4301 20.5231 18.6895 20.8312 17.9166 20.8335H12.0835C11.3106 20.8312 10.57 20.5231 10.0235 19.9766C9.47693 19.4301 9.16888 18.6895 9.16657 17.9167V12.0835C9.16888 11.3106 9.47693 10.57 10.0235 10.0235C10.57 9.47694 11.3106 9.16888 12.0835 9.16657H17.9166ZM17.9166 8H12.0835C9.8375 8 8 9.83751 8 12.0835V17.9167C8 20.1626 9.8375 22.0001 12.0835 22.0001H17.9166C20.1625 22.0001 22 20.1626 22 17.9167V12.0835C22 9.83751 20.1625 8 17.9166 8Z" fill="#1E1E1E"/>
<path d="M18.7938 12.0884C18.6204 12.0884 18.4507 12.037 18.3063 11.9406C18.162 11.8441 18.0496 11.7071 17.9832 11.5467C17.9167 11.3864 17.8993 11.21 17.9332 11.0397C17.9671 10.8695 18.0507 10.7132 18.1733 10.5904C18.2961 10.4677 18.4525 10.3841 18.6227 10.3503C18.7929 10.3164 18.9693 10.3338 19.1296 10.4002C19.29 10.4666 19.4271 10.5791 19.5235 10.7234C19.6199 10.8677 19.6713 11.0374 19.6713 11.2109C19.6716 11.3262 19.6491 11.4405 19.605 11.547C19.561 11.6536 19.4965 11.7504 19.4149 11.832C19.3334 11.9135 19.2365 11.9781 19.1299 12.0222C19.0234 12.0662 18.9092 12.0887 18.7938 12.0884Z" fill="#1E1E1E"/>
<path d="M14.9999 12.6655C15.4614 12.6655 15.9125 12.8024 16.2963 13.0588C16.68 13.3152 16.9791 13.6796 17.1557 14.106C17.3323 14.5324 17.3785 15.0016 17.2885 15.4542C17.1984 15.9069 16.9762 16.3227 16.6498 16.649C16.3235 16.9754 15.9077 17.1976 15.4551 17.2876C15.0024 17.3777 14.5333 17.3314 14.1069 17.1548C13.6805 16.9782 13.3161 16.6791 13.0597 16.2954C12.8033 15.9117 12.6664 15.4605 12.6664 14.999C12.6671 14.3803 12.9131 13.7872 13.3506 13.3497C13.7881 12.9123 14.3812 12.6662 14.9999 12.6655ZM14.9999 11.499C14.3076 11.499 13.6309 11.7042 13.0554 12.0888C12.4798 12.4734 12.0312 13.02 11.7663 13.6596C11.5014 14.2991 11.4321 15.0029 11.5671 15.6818C11.7022 16.3607 12.0355 16.9844 12.525 17.4739C13.0145 17.9634 13.6381 18.2967 14.317 18.4318C14.996 18.5668 15.6997 18.4975 16.3393 18.2326C16.9788 17.9677 17.5255 17.5191 17.91 16.9435C18.2946 16.3679 18.4998 15.6912 18.4998 14.999C18.4998 14.0707 18.1311 13.1805 17.4748 12.5241C16.8184 11.8677 15.9281 11.499 14.9999 11.499Z" fill="#1E1E1E"/>
</svg>
