<svg width="80" height="80" viewBox="0 0 80 80" fill="none" xmlns="http://www.w3.org/2000/svg">
<g clip-path="url(#clip0_29_263)">
<mask id="mask0_29_263" style="mask-type:luminance" maskUnits="userSpaceOnUse" x="0" y="0" width="80" height="80">
<path d="M80 0H0V80H80V0Z" fill="white"/>
</mask>
<g mask="url(#mask0_29_263)">
<path d="M14.1667 6.44813e-06H65.8332C67.6944 -0.00179242 69.5372 0.372807 71.2568 1.10237C72.9764 1.83192 74.5388 2.90212 75.8544 4.25172C77.1704 5.60128 78.214 7.20376 78.9252 8.96744C79.6364 10.7311 80.0016 12.6213 80 14.5299V65.47C80.0016 67.3788 79.6364 69.2688 78.9252 71.0324C78.214 72.7964 77.1704 74.3988 75.8544 75.7484C74.5388 77.098 72.9764 78.168 71.2568 78.8976C69.5372 79.6272 67.6944 80.0016 65.8332 80H14.1667C12.3058 80.0016 10.4628 79.6272 8.74324 78.8976C7.02368 78.168 5.46128 77.098 4.1454 75.7484C2.82957 74.3988 1.78613 72.7964 1.07481 71.0324C0.363487 69.2688 -0.00174761 67.3788 6.28692e-06 65.47V14.5299C-0.00174761 12.6213 0.363487 10.7311 1.07481 8.96744C1.78613 7.20376 2.82957 5.60128 4.1454 4.25172C5.46128 2.90212 7.02368 1.83192 8.74324 1.10237C10.4628 0.372807 12.3058 -0.00179242 14.1667 6.44813e-06Z" fill="#F7DF1E"/>
<path d="M53.8758 62.5968C55.487 65.228 57.5838 67.162 61.2918 67.162C64.4066 67.162 66.3962 65.6052 66.3962 63.454C66.3962 60.876 64.3518 59.9632 60.9234 58.4636L59.0442 57.6572C53.6194 55.346 50.0154 52.4508 50.0154 46.33C50.0154 40.692 54.3114 36.4 61.025 36.4C65.8046 36.4 69.241 38.0635 71.717 42.4192L65.863 46.1776C64.5742 43.8668 63.1838 42.956 61.025 42.956C58.823 42.956 57.4274 44.3532 57.4274 46.1776C57.4274 48.4332 58.8242 49.346 62.0498 50.7428L63.929 51.548C70.3162 54.2868 73.9226 57.0792 73.9226 63.3576C73.9226 70.1256 68.6058 73.8336 61.4654 73.8336C54.4842 73.8336 49.9734 70.5068 47.7666 66.146L53.8758 62.5968ZM27.3196 63.2484C28.5005 65.3436 29.5748 67.1148 32.1577 67.1148C34.6275 67.1148 36.1856 66.1484 36.1856 62.3912V36.8292H43.703V62.4928C43.703 70.2768 39.1392 73.8196 32.4777 73.8196C26.4586 73.8196 22.9729 70.7048 21.2002 66.9532L27.3196 63.2484Z" fill="black"/>
</g>
</g>
<defs>
<clipPath id="clip0_29_263">
<rect width="80" height="80" fill="white"/>
</clipPath>
</defs>
</svg>
