<svg width="80" height="80" viewBox="0 0 80 80" fill="none" xmlns="http://www.w3.org/2000/svg">
<path d="M40.1234 21.1015C56.5935 8.31517 48.1405 0 48.1405 0C49.3985 13.2185 34.5314 16.3396 30.5464 25.4228C27.827 31.6212 32.4084 37.0483 40.1179 43.8885C39.4362 42.3735 38.385 40.9015 37.3209 39.4112C33.6914 34.3282 29.9102 29.033 40.1234 21.1015Z" fill="#E76F00"/>
<path d="M42.7523 46.6925C42.7523 46.6925 47.7075 42.6946 43.7833 38.2518C30.4813 23.1796 58.332 16.3395 58.332 16.3395C41.328 24.5313 43.8665 29.3935 48.1403 35.3003C52.7163 41.6343 42.7523 46.6925 42.7523 46.6925Z" fill="#E76F00"/>
<path d="M57.3425 58.614C72.6056 50.8145 65.5485 43.3193 60.6228 44.3292C59.4155 44.5763 58.8771 44.7903 58.8771 44.7903C58.8771 44.7903 59.3253 44.1 60.1813 43.8012C69.9261 40.4322 77.4205 53.7373 57.0356 59.007C57.0356 59.007 57.2718 58.7995 57.3425 58.614Z" fill="#5382A1"/>
<path d="M25.5825 48.7423C16.0326 47.4881 30.8185 44.0348 30.8185 44.0348C30.8185 44.0348 25.0765 43.654 18.0147 47.0108C9.66426 50.9828 38.67 52.7893 53.6848 48.9061C55.2458 47.858 57.4035 46.9493 57.4035 46.9493C57.4035 46.9493 51.2592 48.0286 45.1402 48.5361C37.6528 49.1531 29.6147 49.2731 25.5825 48.7423Z" fill="#5382A1"/>
<path d="M29.2159 56.1895C23.8907 55.6478 27.3776 53.1097 27.3776 53.1097C13.5975 57.6073 35.0444 62.7075 54.2997 57.1707C52.2531 56.461 50.9514 55.1633 50.9514 55.1633C41.5409 56.9453 36.1024 56.8882 29.2159 56.1895Z" fill="#5382A1"/>
<path d="M31.5362 64.2479C26.2149 63.6464 29.3237 61.8685 29.3237 61.8685C16.8149 65.3055 36.9324 72.4064 52.8582 65.6944C50.2497 64.6969 48.3819 63.5452 48.3819 63.5452C41.2777 64.8674 37.9829 64.971 31.5362 64.2479Z" fill="#5382A1"/>
<path d="M64.8467 68.347C64.8467 68.347 67.1473 70.211 62.313 71.6532C53.1203 74.3915 24.0523 75.2185 15.9773 71.7622C13.0746 70.5205 18.518 68.7972 20.2303 68.4355C22.0162 68.0547 23.0367 68.1257 23.0367 68.1257C19.8085 65.8895 2.17122 72.5167 14.0778 74.4147C46.5487 79.5928 73.2692 72.0828 64.8467 68.347Z" fill="#5382A1"/>
<path d="M70 72.4197C69.4672 79.2367 46.9694 80.6707 32.3185 79.7485C22.7609 79.1457 20.8454 77.6395 20.8174 77.6175C29.9647 79.1005 45.3872 79.3705 57.892 77.0563C68.9759 75.004 70 72.4197 70 72.4197Z" fill="#5382A1"/>
</svg>
