<svg width="35" height="35" viewBox="0 0 35 35" fill="none" xmlns="http://www.w3.org/2000/svg">
<rect width="35" height="35" rx="5" fill="#EFEFEF"/>
<path d="M24.7204 10H11.3671C10.6375 10 10 10.525 10 11.2461V24.629C10 25.354 10.6375 26 11.3671 26H24.7165C25.45 26 26 25.3496 26 24.629V11.2461C26.0043 10.525 25.45 10 24.7204 10ZM14.9596 23.3368H12.6675V16.21H14.9596V23.3368ZM13.8929 15.1264H13.8764C13.1429 15.1264 12.6679 14.5804 12.6679 13.8968C12.6679 13.2007 13.1554 12.6675 13.9054 12.6675C14.6554 12.6675 15.1143 13.1968 15.1307 13.8968C15.1304 14.5804 14.6554 15.1264 13.8929 15.1264ZM23.3368 23.3368H21.0446V19.44C21.0446 18.5064 20.7111 17.8686 19.8818 17.8686C19.2482 17.8686 18.8732 18.2971 18.7064 18.7147C18.6439 18.8646 18.6271 19.0689 18.6271 19.2775V23.3368H16.335V16.21H18.6271V17.2018C18.9607 16.7268 19.4818 16.0432 20.6943 16.0432C22.199 16.0432 23.3371 17.035 23.3371 19.1732L23.3368 23.3368Z" fill="black"/>
</svg>
