<svg width="20" height="20" viewBox="0 0 20 20" fill="none" xmlns="http://www.w3.org/2000/svg">
<path d="M9.65242 8.74363C10.3028 8.74363 10.83 8.21641 10.83 7.56605C10.83 6.91568 10.3028 6.38846 9.65242 6.38846C9.00206 6.38846 8.47482 6.91568 8.47482 7.56605C8.47482 8.21641 9.00206 8.74363 9.65242 8.74363Z" fill="#DFDFDF"/>
<path d="M9.65173 1.68185C6.40764 1.68185 3.7681 4.20629 3.7681 7.30808C3.7681 8.78523 4.4414 10.7496 5.76927 13.1468C6.83567 15.0715 8.0694 16.812 8.71109 17.678C8.81952 17.8259 8.96129 17.9462 9.12491 18.0292C9.28853 18.1121 9.46939 18.1554 9.65284 18.1554C9.83629 18.1554 10.0171 18.1121 10.1808 18.0292C10.3444 17.9462 10.4862 17.8259 10.5946 17.678C11.2352 16.812 12.47 15.0715 13.5364 13.1468C14.862 10.7504 15.5354 8.78597 15.5354 7.30808C15.5354 4.20629 12.8958 1.68185 9.65173 1.68185ZM9.65173 9.91894C9.18626 9.91894 8.73125 9.7809 8.34423 9.5223C7.9572 9.2637 7.65556 8.89615 7.47743 8.46611C7.2993 8.03608 7.25269 7.56287 7.3435 7.10635C7.43431 6.64982 7.65845 6.23048 7.98759 5.90134C8.31672 5.57221 8.73607 5.34805 9.19259 5.25725C9.64912 5.16644 10.1223 5.21304 10.5524 5.39117C10.9824 5.5693 11.35 5.87095 11.6086 6.25797C11.8672 6.645 12.0052 7.10001 12.0052 7.56548C12.0045 8.18944 11.7563 8.78767 11.3151 9.22887C10.8739 9.67008 10.2757 9.91825 9.65173 9.91894Z" fill="#DFDFDF"/>
</svg>
