<svg width="17" height="17" viewBox="0 0 17 17" fill="none" xmlns="http://www.w3.org/2000/svg">
<path d="M9.20495 15.9657C7.28171 15.9657 5.43724 15.2017 4.07731 13.8418C2.71737 12.4818 1.95337 10.6374 1.95337 8.71413C1.95337 5.77599 3.64124 3.14167 6.25462 2.00423C6.34672 1.96409 6.44878 1.95262 6.5475 1.97132C6.64622 1.99002 6.73701 2.03802 6.80806 2.10906C6.8791 2.18011 6.9271 2.2709 6.9458 2.36962C6.9645 2.46834 6.95303 2.5704 6.91289 2.6625C6.61282 3.3514 6.45435 4.23378 6.45435 5.21337C6.45435 8.66037 9.25871 11.4647 12.7057 11.4647C13.6853 11.4647 14.5677 11.3063 15.2566 11.0062C15.3487 10.9661 15.4507 10.9546 15.5495 10.9733C15.6482 10.992 15.739 11.04 15.81 11.111C15.8811 11.1821 15.9291 11.2729 15.9478 11.3716C15.9665 11.4703 15.955 11.5724 15.9148 11.6645C14.7774 14.2778 12.1431 15.9657 9.20495 15.9657Z" fill="black"/>
</svg>
