<svg width="35" height="35" viewBox="0 0 35 35" fill="none" xmlns="http://www.w3.org/2000/svg">
<rect width="35" height="35" rx="5" fill="#EFEFEF"/>
<path d="M23.3558 26.8332C22.5931 26.8332 21.5219 26.5575 19.9176 25.6613C17.9668 24.5676 16.4579 23.5578 14.5176 21.623C12.647 19.7538 11.7366 18.5436 10.4625 16.2256C9.02317 13.6084 9.26853 12.2365 9.5428 11.6502C9.86943 10.9494 10.3516 10.5302 10.9747 10.1142C11.3287 9.88234 11.7033 9.68358 12.0937 9.52046C12.1328 9.50366 12.1691 9.48764 12.2016 9.47319C12.3949 9.38608 12.688 9.25443 13.0592 9.39506C13.3069 9.48804 13.528 9.67827 13.8742 10.0201C14.5841 10.7201 15.5542 12.2791 15.9121 13.0447C16.1524 13.5607 16.3114 13.9014 16.3118 14.2834C16.3118 14.7307 16.0867 15.0756 15.8136 15.4479C15.7624 15.5178 15.7116 15.5846 15.6624 15.6494C15.3651 16.0401 15.2998 16.153 15.3428 16.3545C15.4299 16.7596 16.0797 17.9655 17.1475 19.0308C18.2153 20.096 19.3866 20.7046 19.7933 20.7914C20.0035 20.8362 20.1188 20.7683 20.522 20.4604C20.5799 20.4163 20.6392 20.3706 20.7014 20.3249C21.1179 20.0151 21.4469 19.796 21.8836 19.796H21.886C22.2661 19.796 22.5916 19.9608 23.1307 20.2327C23.8339 20.5874 25.4402 21.5449 26.1447 22.2555C26.4873 22.6008 26.6783 22.8211 26.7717 23.0683C26.9124 23.4406 26.7799 23.7324 26.6935 23.9277C26.6792 23.9601 26.6632 23.9957 26.6463 24.0351C26.4818 24.4248 26.2819 24.7986 26.0489 25.1515C25.6336 25.7726 25.2128 26.2535 24.5103 26.5805C24.1496 26.751 23.7548 26.8375 23.3558 26.8332Z" fill="#1E1E1E"/>
</svg>
