<svg width="90" height="90" viewBox="0 0 90 90" fill="none" xmlns="http://www.w3.org/2000/svg">
<g clip-path="url(#clip0_29_231)">
<path d="M74.25 0H15.75C7.0515 0 0 7.0515 0 15.75V74.25C0 82.9485 7.0515 90 15.75 90H74.25C82.9485 90 90 82.9485 90 74.25V15.75C90 7.0515 82.9485 0 74.25 0Z" fill="#001E36"/>
<path d="M20.25 63.8073V25.7257C20.25 25.4531 20.3865 25.3168 20.6595 25.3168C23.6233 25.2389 27.3866 25.2 31.9494 25.2C37.3311 25.2 41.2699 26.4071 43.7658 28.8213C46.3005 31.2354 47.5681 34.2142 47.5681 37.7575C47.5681 42.1575 46.008 45.4284 42.8883 47.57C39.7685 49.7115 35.8492 50.7825 31.1304 50.7825H27.6791V63.7488C27.6791 64.0602 27.5231 64.2159 27.2111 64.2159H20.718C20.406 64.2159 20.25 64.0796 20.25 63.8073ZM27.6791 30.8071V45.1751C28.2251 45.2529 29.4925 45.2921 31.4814 45.2921C34.0943 45.2921 36.2002 44.7274 37.7991 43.5983C39.437 42.4301 40.256 40.5416 40.256 37.9328C40.256 35.6354 39.5345 33.8637 38.0916 32.6177C36.6876 31.3717 34.6402 30.7487 31.9494 30.7487C31.2864 30.7487 30.6234 30.7682 29.9605 30.8071C29.3365 30.8071 28.81 30.8071 28.3811 30.8071C27.9911 30.8071 27.7571 30.8071 27.6791 30.8071Z" fill="#31A8FE"/>
<path d="M67.977 42.4885C65.7932 41.1257 63.5117 40.4443 61.133 40.4443C59.7681 40.4443 58.7543 40.6973 58.091 41.2035C57.4673 41.7097 57.1554 42.3133 57.1554 43.0142C57.1554 43.715 57.4281 44.3381 57.974 44.8832C58.5203 45.3893 59.6705 45.9927 61.4255 46.6938C64.6623 47.9399 66.924 49.2638 68.211 50.6655C69.5372 52.0281 70.2 53.8002 70.2 55.9805C70.2 58.6283 69.1862 60.7698 67.158 62.4051C65.1695 64.0017 62.4591 64.8 59.027 64.8C55.5953 64.8 52.7873 64.1772 50.6034 62.9312C50.3694 62.8533 50.2524 62.6585 50.2524 62.3471V56.9151C50.2524 56.7594 50.2916 56.6618 50.3694 56.6231C50.4864 56.5452 50.5841 56.5452 50.6619 56.6231C53.1968 58.4919 55.9071 59.4266 58.793 59.4266C60.1583 59.4266 61.1915 59.193 61.8935 58.7255C62.6346 58.2197 63.005 57.5771 63.005 56.7981C63.005 55.9805 62.7125 55.2992 62.1275 54.7542C61.5425 54.1701 60.3918 53.5469 58.676 52.8849C55.5561 51.678 53.3723 50.3928 52.1244 49.0302C50.9157 47.6285 50.3109 45.8762 50.3109 43.7734C50.3109 41.3593 51.2276 39.3345 53.0604 37.6991C54.8933 36.0637 57.506 35.246 60.899 35.246C64.058 35.246 66.4952 35.6743 68.211 36.531C68.4063 36.6478 68.5035 36.9009 68.5035 37.2903V42.1381C68.5035 42.6053 68.328 42.7222 67.977 42.4885Z" fill="#31A8FE"/>
</g>
<defs>
<clipPath id="clip0_29_231">
<rect width="90" height="90" fill="white"/>
</clipPath>
</defs>
</svg>
