<svg width="80" height="80" viewBox="0 0 80 80" fill="none" xmlns="http://www.w3.org/2000/svg">
<g clip-path="url(#clip0_29_277)">
<mask id="mask0_29_277" style="mask-type:luminance" maskUnits="userSpaceOnUse" x="0" y="0" width="80" height="80">
<path d="M80 0H0V80H80V0Z" fill="white"/>
</mask>
<g mask="url(#mask0_29_277)">
<path d="M14.1667 6.44813e-06H65.8332C67.6944 -0.00179242 69.5372 0.372807 71.2568 1.10237C72.9764 1.83192 74.5388 2.90212 75.8544 4.25172C77.1704 5.60128 78.214 7.20376 78.9252 8.96744C79.6364 10.7311 80.0016 12.6213 80 14.5299V65.47C80.0016 67.3788 79.6364 69.2688 78.9252 71.0324C78.214 72.7964 77.1704 74.3988 75.8544 75.7484C74.5388 77.098 72.9764 78.168 71.2568 78.8976C69.5372 79.6272 67.6944 80.0016 65.8332 80H14.1667C12.3058 80.0016 10.4628 79.6272 8.74324 78.8976C7.02368 78.168 5.46128 77.098 4.1454 75.7484C2.82957 74.3988 1.78613 72.7964 1.07481 71.0324C0.363487 69.2688 -0.00174761 67.3788 6.28692e-06 65.47V14.5299C-0.00174761 12.6213 0.363487 10.7311 1.07481 8.96744C1.78613 7.20376 2.82957 5.60128 4.1454 4.25172C5.46128 2.90212 7.02368 1.83192 8.74324 1.10237C10.4628 0.372807 12.3058 -0.00179242 14.1667 6.44813e-06Z" fill="#777BB3"/>
<path d="M18.872 44.674C20.8172 44.674 22.2693 44.3152 23.1882 43.608C24.0971 42.908 24.7249 41.6956 25.054 40.0044C25.3608 38.4233 25.2439 37.3194 24.7067 36.7237C24.1574 36.1152 22.9698 35.8066 21.177 35.8066H18.0685L16.3452 44.674H18.872ZM8.70472 55.5968C8.56044 55.5968 8.4234 55.5324 8.33164 55.4208C8.23976 55.3096 8.20252 55.1628 8.23008 55.0208L12.7972 31.5224C12.8414 31.2952 13.0405 31.1311 13.272 31.1311H23.1154C26.209 31.1311 28.5116 31.9711 29.9589 33.628C31.414 35.2936 31.8633 37.6218 31.2944 40.548C31.0628 41.74 30.6646 42.8472 30.1108 43.8384C29.5564 44.8308 28.8236 45.7488 27.9325 46.568C26.8658 47.566 25.6586 48.29 24.3475 48.716C23.0572 49.1364 21.4002 49.3496 19.4224 49.3496H15.4366L14.2984 55.2056C14.2542 55.4328 14.0553 55.5968 13.8238 55.5968H8.70472Z" fill="black"/>
<path d="M18.467 36.2903H21.1769C23.3407 36.2903 24.0923 36.7651 24.3477 37.0481C24.7713 37.5179 24.8513 38.5084 24.579 39.9125C24.273 41.4844 23.7058 42.5988 22.8929 43.2248C22.0607 43.8656 20.7077 44.1904 18.8718 44.1904H16.9317L18.467 36.2903ZM23.1153 30.6475H13.2717C12.8087 30.6475 12.4106 30.9757 12.3223 31.4302L7.75511 54.9288C7.69995 55.2124 7.77443 55.5056 7.95807 55.7288C8.14187 55.9516 8.41563 56.0804 8.70455 56.0804H13.8234C14.2866 56.0804 14.6847 55.7524 14.773 55.298L15.8352 49.8332H19.4223C21.4508 49.8332 23.1585 49.612 24.4974 49.176C25.8745 48.7284 27.1413 47.97 28.2627 46.9212C29.19 46.068 29.9539 45.1104 30.5327 44.0744C31.1117 43.0384 31.5276 41.8828 31.769 40.64C32.3679 37.5601 31.8813 35.0937 30.323 33.3099C28.7797 31.5432 26.3546 30.6475 23.1153 30.6475ZM15.7581 45.1576H18.8718C20.9357 45.1576 22.4729 44.7688 23.483 43.9912C24.4932 43.2136 25.1746 41.9156 25.5286 40.0968C25.8673 38.3503 25.7131 37.1179 25.0657 36.3999C24.4176 35.682 23.1215 35.3229 21.1769 35.3229H17.6696L15.7581 45.1576ZM23.1153 31.6148C26.0765 31.6148 28.2367 32.3919 29.5945 33.9463C30.9522 35.5006 31.3611 37.6702 30.8193 40.4556C30.5964 41.6032 30.2193 42.652 29.6884 43.6028C29.1568 44.5536 28.4627 45.4232 27.605 46.212C26.5829 47.1684 25.4474 47.85 24.1979 48.256C22.9484 48.6632 21.3569 48.8656 19.4223 48.8656H15.0376L13.8234 55.1132H8.70455L13.2717 31.6148H23.1153Z" fill="white"/>
<path d="M43.0311 49.3496C42.8867 49.3496 42.7499 49.2852 42.6579 49.1736C42.5659 49.062 42.5287 48.9156 42.5563 48.7736L44.5767 38.3764C44.7687 37.3876 44.7215 36.6779 44.4431 36.378C44.2731 36.1947 43.7615 35.8873 42.2495 35.8873H38.5894L36.0493 48.958C36.0051 49.1852 35.806 49.3496 35.5745 49.3496H30.4959C30.3514 49.3496 30.2146 49.2852 30.1227 49.1736C30.0308 49.062 29.9935 48.9152 30.0211 48.7736L34.5883 25.275C34.6324 25.0478 34.8316 24.8837 35.0631 24.8837H40.1415C40.2863 24.8837 40.4231 24.9482 40.5147 25.0596C40.6067 25.1712 40.6439 25.3177 40.6163 25.4596L39.5143 31.1312H43.4519C46.4515 31.1312 48.4855 31.66 49.6699 32.7479C50.8775 33.8578 51.2543 35.6324 50.7899 38.023L48.6651 48.958C48.6211 49.1852 48.4219 49.3496 48.1903 49.3496H43.0311Z" fill="black"/>
<path d="M40.1418 24.3999H35.0634C34.6002 24.3999 34.2021 24.7281 34.1138 25.1826L29.5466 48.6812C29.4915 48.9648 29.5659 49.258 29.7497 49.4812C29.9335 49.704 30.2073 49.8332 30.4962 49.8332H35.5748C36.0378 49.8332 36.4361 49.5048 36.5244 49.0504L38.9884 36.3708H42.2498C43.7594 36.3708 44.0762 36.6933 44.089 36.7071C44.1806 36.8056 44.301 37.2619 44.1022 38.2841L42.0818 48.6812C42.0266 48.9648 42.101 49.258 42.285 49.4812C42.4686 49.704 42.7426 49.8332 43.0314 49.8332H48.1906C48.6538 49.8332 49.0518 49.5048 49.1402 49.0504L51.265 38.1153C51.7638 35.5484 51.337 33.6229 49.9978 32.3918C48.7194 31.2179 46.5782 30.6473 43.4522 30.6473H40.101L41.0914 25.5519C41.1466 25.2683 41.0722 24.9748 40.8886 24.752C40.7046 24.529 40.431 24.3999 40.1418 24.3999ZM40.1418 25.3672L38.9278 31.6147H43.4522C46.299 31.6147 48.2622 32.1116 49.343 33.1041C50.4238 34.0972 50.7474 35.7064 50.3154 37.9308L48.1906 48.8656H43.0314L45.0518 38.4687C45.2818 37.2859 45.197 36.4791 44.7978 36.049C44.3986 35.6189 43.549 35.4035 42.2498 35.4035H38.1908L35.5748 48.8656H30.4962L35.0634 25.3672H40.1418Z" fill="white"/>
<path d="M58.8262 44.674C60.7714 44.674 62.2234 44.3152 63.1422 43.608C64.051 42.9084 64.679 41.6956 65.0082 40.0044C65.315 38.4233 65.1982 37.3194 64.6606 36.7237C64.1114 36.1152 62.9238 35.8066 61.131 35.8066H58.0226L56.299 44.674H58.8262ZM48.659 55.5968C48.5146 55.5968 48.3774 55.5324 48.2858 55.4208C48.1938 55.3096 48.1566 55.1628 48.1842 55.0208L52.7514 31.5224C52.7954 31.2952 52.9946 31.1311 53.2262 31.1311H63.0694C66.163 31.1311 68.4658 31.9711 69.913 33.628C71.3682 35.2934 71.8174 37.6217 71.2486 40.548C71.0166 41.74 70.6186 42.8472 70.065 43.8384C69.5102 44.8308 68.7778 45.7488 67.8866 46.568C66.8198 47.566 65.6126 48.29 64.3014 48.716C63.0114 49.1364 61.3542 49.3496 59.3766 49.3496H55.3906L54.2526 55.2056C54.2086 55.4328 54.0094 55.5968 53.7778 55.5968H48.659Z" fill="black"/>
<path d="M58.4212 36.2903H61.1308C63.2948 36.2903 64.0464 36.7651 64.3016 37.0481C64.7256 37.5179 64.8056 38.5084 64.5332 39.9124C64.2272 41.4844 63.6596 42.5988 62.8468 43.2248C62.0148 43.8656 60.6616 44.1904 58.826 44.1904H56.886L58.4212 36.2903ZM63.0692 30.6475H53.226C52.7628 30.6475 52.3648 30.9757 52.2764 31.4302L47.7092 54.9288C47.654 55.2124 47.7288 55.5056 47.9124 55.7288C48.096 55.9516 48.37 56.0804 48.6588 56.0804H53.7776C54.2408 56.0804 54.6388 55.7524 54.7272 55.298L55.7892 49.8332H59.3764C61.4048 49.8332 63.1124 49.612 64.4516 49.176C65.8284 48.7284 67.0956 47.9696 68.2172 46.9208C69.1444 46.068 69.908 45.1104 70.4868 44.0744C71.0656 43.0384 71.4816 41.8828 71.7232 40.64C72.322 37.5599 71.8352 35.0935 70.2768 33.3097C68.7336 31.5432 66.3088 30.6475 63.0692 30.6475ZM55.7124 45.1576H58.826C60.8896 45.1576 62.4268 44.7688 63.4372 43.9912C64.4476 43.2136 65.1288 41.9156 65.4828 40.0968C65.8216 38.3503 65.6672 37.1179 65.0196 36.3999C64.3716 35.682 63.0756 35.3229 61.1308 35.3229H57.6236L55.7124 45.1576ZM63.0692 31.6148C66.0304 31.6148 68.1908 32.3919 69.5484 33.9463C70.9064 35.5006 71.3152 37.6702 70.7736 40.4556C70.5504 41.6032 70.1732 42.652 69.6424 43.6028C69.1108 44.5536 68.4168 45.4232 67.5592 46.212C66.5368 47.1684 65.4016 47.85 64.152 48.256C62.9024 48.6632 61.3108 48.8656 59.3764 48.8656H54.9916L53.7776 55.1132H48.6588L53.226 31.6148H63.0692Z" fill="white"/>
</g>
</g>
<defs>
<clipPath id="clip0_29_277">
<rect width="80" height="80" fill="white"/>
</clipPath>
</defs>
</svg>
