<svg width="80" height="80" viewBox="0 0 80 80" fill="none" xmlns="http://www.w3.org/2000/svg">
<path d="M39.6195 7.65504C36.9808 7.66754 34.462 7.89191 32.2445 8.28441C25.7133 9.43816 24.5283 11.8532 24.5283 16.3075V22.1894H39.9614V24.15H18.7358C14.2508 24.15 10.3233 26.8457 9.0945 31.9757C7.677 37.8538 7.6145 41.5225 9.0945 47.6607C10.1914 52.23 12.8114 55.485 17.297 55.485H22.6039V48.4338C22.6039 43.3394 27.0108 38.8463 32.2451 38.8463H47.6608C51.952 38.8463 55.377 35.3125 55.377 31.0038V16.3082C55.377 12.125 51.8483 8.98316 47.6608 8.28504C45.0083 7.84379 42.2576 7.64316 39.6195 7.65504ZM31.2733 12.3857C32.867 12.3857 34.1695 13.7088 34.1695 15.3363C34.1695 16.9569 32.8676 18.2675 31.2733 18.2675C29.6733 18.2675 28.3776 16.9569 28.3776 15.3363C28.377 13.7088 29.6733 12.3857 31.2733 12.3857Z" fill="url(#paint0_linear_29_299)"/>
<path d="M57.3014 24.1499V31.0037C57.3014 36.3162 52.7964 40.788 47.6602 40.788H32.2446C28.0221 40.788 24.5283 44.4024 24.5283 48.6312V63.3281C24.5283 67.51 28.1646 69.9706 32.2446 71.17C37.1296 72.6056 41.8146 72.8656 47.6602 71.17C51.5452 70.0444 55.3764 67.7806 55.3764 63.3281V57.4455H39.9614V55.4843H63.0939C67.5789 55.4843 69.2514 52.3562 70.8114 47.6599C72.4226 42.8255 72.3533 38.1762 70.8114 31.9749C69.7026 27.5093 67.5858 24.1493 63.0939 24.1493L57.3014 24.1499ZM48.6308 61.3668C50.2314 61.3668 51.5271 62.6775 51.5271 64.2994C51.5271 65.9256 50.2308 67.2487 48.6308 67.2487C47.0371 67.2487 45.7352 65.9256 45.7352 64.2994C45.7352 62.6775 47.0371 61.3668 48.6308 61.3668Z" fill="url(#paint1_linear_29_299)"/>
<path opacity="0.444" d="M60.818 74.7481C60.818 76.9625 51.558 78.7581 40.1361 78.7581C28.7136 78.7581 19.4536 76.9625 19.4536 74.7481C19.4536 72.5331 28.713 70.7375 40.1361 70.7375C51.558 70.7375 60.818 72.5325 60.818 74.7481Z" fill="url(#paint2_radial_29_299)"/>
<defs>
<linearGradient id="paint0_linear_29_299" x1="6.46069" y1="9.49416" x2="42.0568" y2="39.8504" gradientUnits="userSpaceOnUse">
<stop stop-color="#5A9FD4"/>
<stop offset="1" stop-color="#306998"/>
</linearGradient>
<linearGradient id="paint1_linear_29_299" x1="55.4495" y1="58.7202" x2="42.6841" y2="40.8188" gradientUnits="userSpaceOnUse">
<stop stop-color="#FFD43B"/>
<stop offset="1" stop-color="#FFE873"/>
</linearGradient>
<radialGradient id="paint2_radial_29_299" cx="0" cy="0" r="1" gradientUnits="userSpaceOnUse" gradientTransform="translate(40.0525 74.6331) rotate(-90) scale(4.01145 17.6337)">
<stop stop-color="#B8B8B8" stop-opacity="0.498"/>
<stop offset="1" stop-color="#7F7F7F" stop-opacity="0"/>
</radialGradient>
</defs>
</svg>
