<svg width="70" height="70" viewBox="0 0 70 70" fill="none" xmlns="http://www.w3.org/2000/svg">
<g clip-path="url(#clip0_29_317)">
<path d="M35.0019 14.0011C25.6684 14.0011 19.8371 18.6659 17.5019 27.9995C21.0009 23.3341 25.0855 21.5846 29.7509 22.7511C32.4147 23.415 34.3184 25.3466 36.4266 27.487C39.8577 30.969 43.8291 35 52.5019 35C61.835 35 67.6668 30.3346 70.002 20.9989C66.5025 25.667 62.4185 27.4165 57.7526 26.25C55.0893 25.5856 53.1877 23.6545 51.0768 21.5141C47.6479 18.0321 43.6776 14.0011 35.0019 14.0011ZM17.5019 35C8.16898 35 2.33711 39.6654 0.00195312 49.0011C3.50086 44.333 7.58492 42.5835 12.2509 43.75C14.9147 44.4145 16.8184 46.3455 18.9266 48.4859C22.3577 51.9679 26.3291 55.9989 35.0019 55.9989C44.3349 55.9989 50.1668 51.3341 52.5019 42.0006C49.0025 46.6659 44.9184 48.4154 40.2525 47.2489C37.5892 46.585 35.6877 44.6534 33.5768 42.513C30.1479 39.031 26.1776 35 17.5019 35Z" fill="#38B2AC"/>
</g>
<defs>
<clipPath id="clip0_29_317">
<rect width="70" height="70" fill="white"/>
</clipPath>
</defs>
</svg>
