<svg width="90" height="90" viewBox="0 0 90 90" fill="none" xmlns="http://www.w3.org/2000/svg">
<path d="M2.57035 31.6709C2.57035 31.6709 0.441988 30.1303 2.99925 28.0758L8.95331 22.7362C8.95331 22.7362 10.6591 20.937 12.4612 22.5056L67.428 64.2206V84.2245C67.428 84.2245 67.4006 87.3661 63.3801 87.0201L2.57035 31.6709Z" fill="#2489CA"/>
<path d="M16.7408 44.5634L2.5707 57.4748C2.5707 57.4748 1.11523 58.5598 2.5707 60.5018L9.14911 66.4973C9.14911 66.4973 10.7115 68.1813 13.0219 66.2667L28.04 54.8494L16.7408 44.5634Z" fill="#1070B3"/>
<path d="M41.6139 44.6702L67.5964 24.7823L67.4284 4.88598C67.4284 4.88598 66.3189 0.543483 62.6169 2.80544L28.04 34.3483L41.6139 44.6702Z" fill="#0877B9"/>
<path d="M63.3796 87.0448C64.8878 88.5937 66.7173 88.0854 66.7173 88.0854L86.9651 78.0855C89.5575 76.3137 89.1947 74.1164 89.1947 74.1164V14.3894C89.1947 11.7633 86.5144 10.8569 86.5144 10.8569L68.9638 2.37655C65.1297 0.000687957 62.6167 2.80546 62.6167 2.80546C62.6167 2.80546 65.8462 0.473188 67.4282 4.88671V83.8596C67.4282 84.4031 67.3129 84.9354 67.0822 85.4163C66.621 86.3529 65.6155 87.2233 63.2122 86.8584L63.3796 87.0448Z" fill="#3C99D4"/>
</svg>
