<svg width="90" height="52" viewBox="0 0 90 52" fill="none" xmlns="http://www.w3.org/2000/svg">
<g clip-path="url(#clip0_31_345)">
<path d="M88.8629 0.0195914H88.0139C83.5466 0.0126338 79.9212 3.63056 79.9212 8.0973V26.1626C79.9212 29.77 76.9396 32.6923 73.3907 32.6923C71.2823 32.6923 69.1773 31.6312 67.9282 29.8501L49.4779 3.49837C47.9469 1.31022 45.4558 0.00567627 42.7594 0.00567627C38.553 0.00567627 34.7676 3.58185 34.7676 7.99642V26.166C34.7676 29.7736 31.8102 32.6957 28.237 32.6957C26.1216 32.6957 24.0202 31.6347 22.7711 29.8535L2.12529 0.36399C1.65907 -0.303935 0.611816 0.026549 0.611816 0.840582V16.596C0.611816 17.3926 0.855364 18.1649 1.31114 18.8189L21.6299 47.8354C22.8302 49.5504 24.6012 50.8236 26.6436 51.2863C31.7545 52.4482 36.4585 48.5137 36.4585 43.5008V25.3416C36.4585 21.7341 39.3811 18.8119 42.989 18.8119H42.9994C45.174 18.8119 47.2128 19.873 48.4619 21.6541L66.9158 48.0024C68.4501 50.194 70.8126 51.495 73.6307 51.495C77.9311 51.495 81.6157 47.9153 81.6157 43.5043V25.3381C81.6157 21.7306 84.5381 18.8085 88.1461 18.8085H88.8664C89.3186 18.8085 89.684 18.4432 89.684 17.991V0.837104C89.684 0.384863 89.3186 0.0195914 88.8664 0.0195914H88.8629Z" fill="#0B100F"/>
</g>
<defs>
<clipPath id="clip0_31_345">
<rect width="90" height="51.9588" fill="white"/>
</clipPath>
</defs>
</svg>
