<svg width="90" height="91" viewBox="0 0 90 91" fill="none" xmlns="http://www.w3.org/2000/svg">
<g clip-path="url(#clip0_31_370)">
<mask id="mask0_31_370" style="mask-type:luminance" maskUnits="userSpaceOnUse" x="0" y="0" width="90" height="91">
<path d="M90 0.417419H0V90.4174H90V0.417419Z" fill="white"/>
</mask>
<g mask="url(#mask0_31_370)">
<path d="M90 0.417419H0V90.4174H90V0.417419Z" fill="#7D2AE7"/>
<path d="M90 0.417419H0V90.4174H90V0.417419Z" fill="url(#paint0_radial_31_370)"/>
<path d="M90 0.417419H0V90.4174H90V0.417419Z" fill="url(#paint1_radial_31_370)"/>
<path d="M90 0.417419H0V90.4174H90V0.417419Z" fill="url(#paint2_radial_31_370)"/>
<path d="M90 0.417419H0V90.4174H90V0.417419Z" fill="url(#paint3_radial_31_370)"/>
<path d="M78.2809 48.9055C78.1659 48.9055 78.0615 48.9795 78.0075 49.134C77.3156 51.1007 76.3809 52.2705 75.6112 52.2705C75.1691 52.2705 74.9902 51.7799 74.9902 51.01C74.9902 49.0836 76.1479 44.9991 76.7316 43.1367C76.7991 42.9115 76.8431 42.7097 76.8431 42.5384C76.8431 41.997 76.5459 41.7314 75.8104 41.7314C75.0172 41.7314 74.1634 42.0407 73.3331 43.4897C73.0462 42.2121 72.1791 41.6541 70.9672 41.6541C69.5666 41.6541 68.2134 42.5517 67.0997 44.0074C65.9859 45.463 64.6762 45.9404 63.6909 45.705C64.3997 43.977 64.6627 42.6861 64.6627 41.728C64.6627 40.2254 63.9169 39.3177 62.7122 39.3177C60.8794 39.3177 59.8228 41.0592 59.8228 42.8912C59.8228 44.3065 60.4678 45.7622 61.8853 46.4682C60.6971 49.1442 58.9622 51.5646 58.3041 51.5646C57.4537 51.5646 57.204 47.4195 57.2512 44.4544C57.2816 42.7534 57.4234 42.666 57.4234 42.1517C57.4234 41.8559 57.231 41.6541 56.4581 41.6541C54.6559 41.6541 54.099 43.1736 54.0146 44.9185C53.9874 45.5815 53.8832 46.239 53.7041 46.8784C52.9515 49.5542 51.399 51.5849 50.3865 51.5849C49.9172 51.5849 49.7891 51.1176 49.7891 50.5056C49.7891 48.5794 50.8725 46.1723 50.8725 44.1182C50.8725 42.6089 50.2078 41.6541 48.9553 41.6541C47.4806 41.6541 45.5297 43.4022 43.6837 46.6767C44.2912 44.1687 44.541 41.7415 42.7421 41.7415C42.3519 41.7473 41.9687 41.8465 41.625 42.0306C41.5095 42.0844 41.4131 42.1714 41.3481 42.2805C41.2832 42.3897 41.2526 42.5159 41.2605 42.6424C41.4326 45.3117 39.1005 52.1496 36.8899 52.1496C36.4882 52.1496 36.2925 51.7159 36.2925 51.0167C36.2925 49.087 37.4467 45.0126 38.0272 43.1468C38.1015 42.9047 38.142 42.6962 38.142 42.5147C38.142 42.0038 37.8247 41.7415 37.1059 41.7415C36.3161 41.7415 35.4589 42.0407 34.632 43.4897C34.3417 42.2121 33.4744 41.6541 32.2627 41.6541C30.2749 41.6541 28.0541 43.7485 27.0787 46.4783C25.7726 50.1225 23.1401 53.6423 19.5964 53.6423C16.38 53.6423 14.6824 50.9764 14.6824 46.764C14.6824 40.6827 19.1644 35.7139 22.4887 35.7139C24.0784 35.7139 24.8377 36.7223 24.8377 38.2688C24.8377 40.1414 23.7881 41.0121 23.7881 41.7248C23.7881 41.9432 23.9704 42.1583 24.3315 42.1583C25.776 42.1583 27.477 40.4674 27.477 38.1612C27.477 35.8551 25.5971 34.1674 22.2727 34.1674C16.7783 34.1674 11.25 39.6741 11.25 46.7305C11.25 52.3446 14.031 55.7299 18.8404 55.7299C22.1209 55.7299 24.9862 53.1884 26.532 50.2232C26.7075 52.6808 27.828 53.965 29.5357 53.965C31.0545 53.965 32.283 53.064 33.2212 51.4806C33.5824 53.1379 34.5409 53.9481 35.7862 53.9481C37.2139 53.9481 38.4086 53.0472 39.546 51.373C39.5291 52.6875 39.8295 53.9247 40.9736 53.9247C41.5136 53.9247 42.1582 53.8002 42.273 53.3295C43.4779 48.3675 46.4546 44.3166 47.3659 44.3166C47.6359 44.3166 47.7103 44.5755 47.7103 44.8814C47.7103 46.2295 46.755 48.9929 46.755 50.7578C46.755 52.6639 47.5684 53.9247 49.2491 53.9247C51.1121 53.9247 53.0053 51.6522 54.2677 48.3306C54.6628 51.4335 55.5165 53.938 56.8528 53.938C58.4934 53.938 61.4059 50.499 63.171 46.8582C63.8629 46.9455 64.9022 46.9221 65.9016 46.2194C65.4759 47.2919 65.2266 48.465 65.2266 49.6384C65.2266 53.017 66.8466 53.965 68.2402 53.965C69.7556 53.965 70.9841 53.064 71.9259 51.4806C72.2362 52.9094 73.0294 53.9447 74.4872 53.9447C76.7691 53.9447 78.75 51.6218 78.75 49.7157C78.75 49.2115 78.534 48.9055 78.2809 48.9055ZM30.9262 52.0924C30.0049 52.0924 29.6437 51.168 29.6437 49.7897C29.6437 47.3961 31.2874 43.399 33.0255 43.399C33.7849 43.399 34.0717 44.2898 34.0717 45.379C34.0717 47.8095 32.5091 52.0924 30.9262 52.0924ZM62.4859 44.9487C61.9359 44.2965 61.7366 43.4089 61.7366 42.619C61.7366 41.644 62.0944 40.8203 62.5228 40.8203C62.9516 40.8203 63.0834 41.2407 63.0834 41.8255C63.0834 42.8039 62.7322 44.2326 62.4859 44.9487ZM69.6309 52.0924C68.7094 52.0924 68.3484 51.0302 68.3484 49.7897C68.3484 47.4801 69.9919 43.399 71.7435 43.399C72.5029 43.399 72.7729 44.283 72.7729 45.379C72.7729 47.8095 71.2372 52.0924 69.6309 52.0924Z" fill="white"/>
</g>
<path d="M89.0625 1.35492H0.9375V89.4799H89.0625V1.35492Z" stroke="black" stroke-opacity="0.1"/>
</g>
<defs>
<radialGradient id="paint0_radial_31_370" cx="0" cy="0" r="1" gradientUnits="userSpaceOnUse" gradientTransform="translate(11.428 82.9095) rotate(-49.42) scale(69.6075)">
<stop stop-color="#6420FF"/>
<stop offset="1" stop-color="#6420FF" stop-opacity="0"/>
</radialGradient>
<radialGradient id="paint1_radial_31_370" cx="0" cy="0" r="1" gradientUnits="userSpaceOnUse" gradientTransform="translate(22.9611 4.86389) rotate(54.7) scale(78.4952)">
<stop stop-color="#00C4CC"/>
<stop offset="1" stop-color="#00C4CC" stop-opacity="0"/>
</radialGradient>
<radialGradient id="paint2_radial_31_370" cx="0" cy="0" r="1" gradientUnits="userSpaceOnUse" gradientTransform="translate(12.4696 80.0573) rotate(-45.2) scale(68.7647 31.626)">
<stop stop-color="#6420FF"/>
<stop offset="1" stop-color="#6420FF" stop-opacity="0"/>
</radialGradient>
<radialGradient id="paint3_radial_31_370" cx="0" cy="0" r="1" gradientUnits="userSpaceOnUse" gradientTransform="translate(15 9.79242) rotate(52.4959) scale(101.631 170.255)">
<stop stop-color="#00C4CC"/>
<stop offset="0.364583" stop-color="#00C4CC" stop-opacity="0.68"/>
<stop offset="1" stop-color="#00C4CC" stop-opacity="0"/>
</radialGradient>
<clipPath id="clip0_31_370">
<rect width="90" height="90" fill="white" transform="translate(0 0.417419)"/>
</clipPath>
</defs>
</svg>
