<svg width="101" height="101" viewBox="0 0 101 101" fill="none" xmlns="http://www.w3.org/2000/svg">
<path d="M1.56768 70.8754H4.78637V58.1644L9.76954 69.2457C10.3572 70.5871 11.1619 71.0611 12.7406 71.0611C14.3194 71.0611 15.0935 70.5871 15.6812 69.2457L20.6644 58.1644V70.8754H23.883V58.1856C23.883 56.9476 23.3879 56.3482 22.3662 56.0395C19.9208 55.2764 18.2801 55.9369 17.5373 57.5878L12.6474 68.5241L7.9126 57.587C7.20039 55.9369 5.52914 55.2764 3.08379 56.0387C2.06208 56.3482 1.56689 56.9468 1.56689 58.1848L1.56768 70.8754ZM26.5603 60.5283H29.7782V67.5314C29.7485 67.9114 29.9005 68.8046 31.6634 68.8328C32.5629 68.8469 38.6069 68.8328 38.6633 68.8328V60.4938H41.8891C41.904 60.4938 41.8859 71.8658 41.8859 71.9128C41.9032 74.7178 38.4063 75.3266 36.7939 75.3736H26.6301V73.208C26.6473 73.208 36.7868 73.2103 36.8119 73.2072C38.8843 72.9886 38.639 71.959 38.6383 71.6127V70.7681H31.7974C28.6147 70.7391 26.587 69.3499 26.5611 67.7516C26.5595 67.605 26.6308 60.5988 26.5603 60.5283Z" fill="#00618A"/>
<path d="M44.3706 70.8755H53.6255C54.7091 70.8755 55.7622 70.6491 56.5974 70.2573C57.9897 69.618 58.6706 68.7514 58.6706 67.6153V65.2632C58.6706 64.3347 57.8973 63.4673 56.3804 62.8907C55.5757 62.5804 54.5845 62.4166 53.6247 62.4166H49.7244C48.4245 62.4166 47.8055 62.0249 47.6512 61.1583C47.6206 61.0549 47.6206 60.9726 47.6206 60.8692V59.404C47.6206 59.3218 47.6206 59.2387 47.6512 59.1361C47.8055 58.4756 48.1464 58.2899 49.2919 58.1864L49.6014 58.1661H58.7944V56.0208H49.7565C48.4566 56.0208 47.7758 56.1031 47.1568 56.2888C45.238 56.8874 44.4012 57.8362 44.4012 59.4871V61.3644C44.4012 62.8092 46.0426 64.0471 48.7967 64.3363C49.107 64.3559 49.4157 64.3778 49.7252 64.3778H53.0684C53.1922 64.3778 53.316 64.3778 53.4093 64.3974C54.431 64.4797 54.8635 64.6661 55.1737 65.0367C55.2533 65.1102 55.3163 65.1995 55.3589 65.2991C55.4014 65.3986 55.4224 65.506 55.4206 65.6142V67.4923C55.4206 67.7187 55.2662 68.0078 54.9567 68.2554C54.6786 68.503 54.2139 68.6683 53.595 68.7099L53.2541 68.7302H44.3706V70.8755ZM78.7522 67.1413C78.7522 69.3484 80.3929 70.5864 83.7041 70.8348C84.0135 70.8551 84.323 70.8755 84.6325 70.8755H93.0209V68.7302H84.5714C82.6831 68.7302 81.9717 68.2554 81.9717 67.1201V56.0192H78.753L78.7522 67.1413ZM60.725 67.2525V59.6015C60.725 57.6583 62.0899 56.4792 64.7883 56.107C65.0758 56.0657 65.3659 56.045 65.6564 56.0451H71.7671C72.0774 56.0451 72.3563 56.0655 72.6658 56.107C75.3642 56.4792 76.7299 57.6576 76.7299 59.6015V67.2525C76.7299 68.8305 76.1501 69.6736 74.8142 70.2236L77.9859 73.0858H74.2477L71.6825 70.7697L69.1 70.9335H65.6564C65.0167 70.9293 64.3805 70.839 63.765 70.6647C61.7177 70.1069 60.725 69.0311 60.725 67.2525ZM64.1991 67.0668C64.1991 67.1703 64.2296 67.2745 64.261 67.3983C64.4467 68.2875 65.285 68.7835 66.5559 68.7835H69.48L66.7941 66.3585H70.5323L72.8742 68.474C73.3067 68.2429 73.5903 67.8919 73.6898 67.4398C73.7204 67.3364 73.7204 67.2329 73.7204 67.1295V59.7895C73.7204 59.7072 73.7204 59.603 73.6898 59.4996C73.5034 58.6722 72.6658 58.1974 71.4255 58.1974H66.5551C65.1291 58.1974 64.1983 58.8179 64.1983 59.7895L64.1991 67.0668Z" fill="#E48E00"/>
<path d="M95.8525 52.4582C93.8741 52.4041 92.3627 52.5882 91.0699 53.1328C90.7024 53.2879 90.1171 53.2918 90.0576 53.7518C90.259 53.9641 90.2903 54.2799 90.4509 54.54C90.7596 55.0391 91.2807 55.7082 91.7453 56.0584C92.2522 56.4416 92.7756 56.8521 93.3209 57.1844C94.2886 57.7751 95.3698 58.112 96.303 58.7028C96.8523 59.0523 97.3976 59.491 97.9343 59.8851C98.1999 60.0787 98.377 60.3819 98.7225 60.5033V60.4477C98.5415 60.2174 98.4945 59.9008 98.3284 59.6595L97.5966 58.9277C96.8812 57.9781 95.9739 57.1452 95.0079 56.4525C94.2384 55.9002 92.5163 55.1535 92.195 54.2579L92.1386 54.2023C92.6839 54.1404 93.3233 53.9429 93.8263 53.8082C94.6725 53.581 95.4286 53.6397 96.3022 53.4141L97.4838 53.0756V52.8515C97.0426 52.3986 96.7269 51.7984 96.2458 51.3887C94.9867 50.316 93.6108 49.2442 92.195 48.3494C91.4099 47.8542 90.4392 47.5322 89.6063 47.1122C89.3273 46.9704 88.8353 46.8975 88.6496 46.6617C88.2116 46.1046 87.9742 45.3987 87.6365 44.7491C86.9149 43.3459 86.2395 41.9197 85.6111 40.4727C85.1849 39.4972 84.906 38.5351 84.3739 37.6599C81.8189 33.4594 79.0687 30.924 74.8087 28.4324C73.9022 27.9019 72.8107 27.6935 71.6582 27.4201L69.8012 27.3073C69.4243 27.1498 69.031 26.6875 68.6761 26.4634C67.2642 25.5718 63.6443 23.6326 62.5991 26.1829C61.9394 27.7922 63.5864 29.3624 64.1748 30.1781C64.5877 30.75 65.1174 31.3909 65.4127 32.0342C65.6071 32.4573 65.64 32.8812 65.8068 33.3286C66.2151 34.4302 66.5716 35.6298 67.1004 36.6476C67.3676 37.1631 67.663 37.7061 68.0007 38.1668C68.2075 38.4489 68.5633 38.5742 68.6189 39.0107C68.2718 39.4964 68.2514 40.2517 68.0563 40.8668C67.1772 43.6397 67.5086 47.0864 68.7881 49.1384C69.1807 49.7691 70.1052 51.1199 71.3761 50.6012C72.4879 50.1484 72.2403 48.7451 72.5584 47.5063C72.6305 47.2266 72.5858 47.0198 72.7269 46.8317V46.8881L73.74 48.9135C74.4898 50.1209 75.8194 51.3816 76.9469 52.2333C77.5314 52.6744 77.9921 53.4384 78.7475 53.6961V53.6389H78.6919C78.5446 53.4109 78.3165 53.3169 78.1284 53.1328C77.6881 52.7011 77.1984 52.1651 76.8349 51.67C75.8092 50.2784 74.9035 48.7545 74.0777 47.1686C73.6836 46.4118 73.3412 45.5765 73.0089 44.8056C72.8804 44.5086 72.882 44.0589 72.6156 43.9061C72.2505 44.4702 71.7154 44.927 71.4333 45.5938C70.9835 46.6594 70.9256 47.9592 70.7587 49.3069L70.6459 49.3625C69.8616 49.1737 69.5865 48.3666 69.2951 47.6748C68.5586 45.9252 68.4214 43.1069 69.0702 41.0925C69.2379 40.5706 69.9955 38.9292 69.6884 38.4473C69.5419 37.967 69.0584 37.6896 68.7889 37.3214C68.4353 36.8286 68.1336 36.3006 67.8887 35.7457C67.2853 34.3816 67.0041 32.8499 66.3702 31.4701C66.0662 30.8104 65.5538 30.1436 65.1322 29.5575C64.666 28.9072 64.1434 28.4292 63.7815 27.6442C63.653 27.3652 63.4782 26.9178 63.6686 26.6311C63.729 26.4375 63.8159 26.3568 64.0071 26.2934C64.3331 26.0419 65.2419 26.3772 65.582 26.5182C66.4846 26.8936 67.2376 27.2501 68.0023 27.7562C68.369 27.9999 68.7396 28.47 69.1838 28.6001H69.69C70.4821 28.7818 71.3698 28.6557 72.1095 28.8806C73.4179 29.2786 74.5901 29.8968 75.6541 30.569C78.8972 32.6172 81.5478 35.5318 83.3624 39.0091C83.6539 39.5693 83.7808 40.1029 84.037 40.6968C84.5557 41.894 85.2092 43.1265 85.7247 44.2978C86.2395 45.4661 86.7417 46.6453 87.4696 47.6176C87.852 48.1285 89.3297 48.4027 90.0012 48.6863C90.4721 48.8853 91.2431 49.093 91.6889 49.3609C92.5406 49.8749 93.3664 50.4868 94.1648 51.0494C94.5636 51.333 95.7914 51.9497 95.8525 52.4582ZM70.7023 31.0219C70.3611 31.0163 70.0207 31.0543 69.6892 31.1347V31.1904H69.7456C69.9423 31.5954 70.2894 31.8556 70.533 32.2035L71.0964 33.385L71.152 33.3294C71.5007 33.0841 71.6597 32.6916 71.6582 32.0914C71.5179 31.9441 71.4975 31.76 71.3769 31.5853C71.217 31.3502 70.9052 31.2186 70.7023 31.0219Z" fill="#00618A"/>
</svg>
