<svg width="90" height="90" viewBox="0 0 90 90" fill="none" xmlns="http://www.w3.org/2000/svg">
<g clip-path="url(#clip0_28_219)">
<mask id="mask0_28_219" style="mask-type:luminance" maskUnits="userSpaceOnUse" x="0" y="0" width="90" height="90">
<path d="M90 0H0V90H90V0Z" fill="white"/>
</mask>
<g mask="url(#mask0_28_219)">
<path d="M63.1285 14.1428L89.3572 36.1286L79.9713 55.2857L64.0285 50.9143H50.3999L63.1285 14.1428Z" fill="url(#paint0_linear_28_219)"/>
<path d="M36.6429 28.4143L31.5 55.2857L30.9857 64.5429L18.2571 70.0714L0 72L5.52857 13.7571L38.4429 0L58.7571 13.3714L36.6429 28.4143Z" fill="url(#paint1_linear_28_219)"/>
<path d="M36.6429 28.4143L39.0857 80.3572L30.8571 90L0 72L25.3286 34.2L36.6429 28.4143Z" fill="url(#paint2_linear_28_219)"/>
<path d="M70.5857 24.5571H39.3428L66.9857 0L70.5857 24.5571Z" fill="url(#paint3_linear_28_219)"/>
<path d="M89.9998 80.4857L62.4855 89.8714L25.9712 79.5857L36.6428 28.4143L40.8855 24.5571L63.1284 22.5L61.0712 44.8714L78.8141 38.0571L89.9998 80.4857Z" fill="url(#paint4_linear_28_219)"/>
<path d="M17.2285 17.2285H72.7715V72.7714H17.2285V17.2285Z" fill="black"/>
<path d="M22.5 62.3571H43.3286V65.8286H22.5V62.3571Z" fill="white"/>
<path d="M22.3716 24.5573H31.6286C37.1573 24.5573 40.5002 27.7716 40.5002 32.5286C40.5002 37.8 36.3859 40.7573 31.243 40.7573H27.3859V47.5716H22.3716V24.5573ZM31.3716 36.1286C33.943 36.1286 35.3573 34.4573 35.3573 32.5286C35.3573 30.2143 33.8145 29.0573 31.243 29.0573H27.3859V36.1286H31.3716Z" fill="white"/>
<path d="M42.5571 36.1284C42.5571 29.5714 47.443 24.1714 54.5144 24.1714C58.8858 24.1714 61.4571 25.5857 63.643 27.7714L60.4287 31.5C58.6287 29.8284 56.8287 28.9284 54.5144 28.9284C50.6571 28.9284 47.8287 32.1428 47.8287 36.1284C47.8287 40.1141 50.5287 43.2 54.5144 43.2C57.0858 43.2 58.7571 42.1714 60.5571 40.5L63.7714 43.7141C61.4571 46.2857 58.7571 47.8284 54.3858 47.8284C47.5714 47.9571 42.5571 42.6857 42.5571 36.1284Z" fill="white"/>
</g>
</g>
<defs>
<linearGradient id="paint0_linear_28_219" x1="32.1402" y1="34.7734" x2="85.7005" y2="34.7734" gradientUnits="userSpaceOnUse">
<stop stop-color="#21D789"/>
<stop offset="1" stop-color="#07C3F2"/>
</linearGradient>
<linearGradient id="paint1_linear_28_219" x1="-31.5759" y1="75.9613" x2="78.7114" y2="-5.45272" gradientUnits="userSpaceOnUse">
<stop offset="0.011" stop-color="#FCF84A"/>
<stop offset="0.112" stop-color="#A7EB62"/>
<stop offset="0.206" stop-color="#5FE077"/>
<stop offset="0.273" stop-color="#32DA84"/>
<stop offset="0.306" stop-color="#21D789"/>
<stop offset="0.577" stop-color="#21D789"/>
<stop offset="0.597" stop-color="#21D789"/>
<stop offset="0.686" stop-color="#20D68C"/>
<stop offset="0.763" stop-color="#1ED497"/>
<stop offset="0.835" stop-color="#19D1A9"/>
<stop offset="0.904" stop-color="#13CCC2"/>
<stop offset="0.971" stop-color="#0BC6E1"/>
<stop offset="1" stop-color="#07C3F2"/>
</linearGradient>
<linearGradient id="paint2_linear_28_219" x1="11.9957" y1="99.8409" x2="30.3904" y2="42.12" gradientUnits="userSpaceOnUse">
<stop stop-color="#21D789"/>
<stop offset="0.164" stop-color="#24D788"/>
<stop offset="0.305" stop-color="#2FD886"/>
<stop offset="0.437" stop-color="#41DA82"/>
<stop offset="0.564" stop-color="#5ADC7D"/>
<stop offset="0.688" stop-color="#7AE077"/>
<stop offset="0.809" stop-color="#A1E36E"/>
<stop offset="0.925" stop-color="#CFE865"/>
<stop offset="1" stop-color="#F1EB5E"/>
</linearGradient>
<linearGradient id="paint3_linear_28_219" x1="36.3535" y1="49.6581" x2="76.383" y2="-4.16057" gradientUnits="userSpaceOnUse">
<stop stop-color="#21D789"/>
<stop offset="0.061" stop-color="#24D788"/>
<stop offset="0.113" stop-color="#2FD886"/>
<stop offset="0.162" stop-color="#41DA82"/>
<stop offset="0.209" stop-color="#5ADD7D"/>
<stop offset="0.255" stop-color="#79E077"/>
<stop offset="0.258" stop-color="#7CE076"/>
<stop offset="0.499" stop-color="#8CE173"/>
<stop offset="0.925" stop-color="#B2E56B"/>
</linearGradient>
<linearGradient id="paint4_linear_28_219" x1="97.5714" y1="56.5071" x2="16.9173" y2="55.7601" gradientUnits="userSpaceOnUse">
<stop offset="0.387" stop-color="#FCF84A"/>
<stop offset="0.536" stop-color="#ECF451"/>
<stop offset="0.826" stop-color="#C2E964"/>
<stop offset="0.925" stop-color="#B2E56B"/>
</linearGradient>
<clipPath id="clip0_28_219">
<rect width="90" height="90" fill="white"/>
</clipPath>
</defs>
</svg>
